<svg xmlns="http://www.w3.org/2000/svg" width="1920" height="1080"><path d="M342,-166L557,-163L692,-165Z" fill="#cfebc3" stroke="#cfebc3" stroke-width="1.51"/><path d="M236,1228L-37,1245L732,1247Z" fill="#79808f" stroke="#79808f" stroke-width="1.51"/><path d="M342,-166L692,-165L829,-169Z" fill="#c5e7c5" stroke="#c5e7c5" stroke-width="1.51"/><path d="M1190,1232L978,1233L1310,1241Z" fill="#275e94" stroke="#275e94" stroke-width="1.51"/><path d="M978,1233L732,1247L1310,1241Z" fill="#306694" stroke="#306694" stroke-width="1.51"/><path d="M829,-169L1104,-129L1329,-146Z" fill="#a6d1c8" stroke="#a6d1c8" stroke-width="1.51"/><path d="M1329,-146L1443,-147L1585,-160Z" fill="#9eb3c0" stroke="#9eb3c0" stroke-width="1.51"/><path d="M829,-169L1329,-146L1585,-160Z" fill="#a2c6c8" stroke="#a2c6c8" stroke-width="1.51"/><path d="M1485,1210L1310,1241L1613,1214Z" fill="#1e488d" stroke="#1e488d" stroke-width="1.51"/><path d="M1613,1214L1310,1241L1736,1235Z" fill="#1c4089" stroke="#1c4089" stroke-width="1.51"/><path d="M1736,1235L1310,1241L1812,1247Z" fill="#1b3b85" stroke="#1b3b85" stroke-width="1.51"/><path d="M1585,-160L1688,-155L1831,-149Z" fill="#9c9eb8" stroke="#9c9eb8" stroke-width="1.51"/><path d="M1831,-149L1944,-119L2069,-132Z" fill="#948da6" stroke="#948da6" stroke-width="1.51"/><path d="M1969,617L2058,740L2076,590Z" fill="#2a6197" stroke="#2a6197" stroke-width="1.51"/><path d="M1961,961L2091,994L2093,826Z" fill="#1c3f88" stroke="#1c3f88" stroke-width="1.51"/><path d="M1936,850L1961,961L2093,826Z" fill="#204791" stroke="#204791" stroke-width="1.51"/><path d="M2076,590L2058,740L2093,826Z" fill="#205892" stroke="#205892" stroke-width="1.51"/><path d="M1973,217L2061,377L2097,216Z" fill="#637993" stroke="#637993" stroke-width="1.51"/><path d="M1952,107L1973,217L2097,216Z" fill="#778196" stroke="#778196" stroke-width="1.51"/><path d="M1947,475L2076,590L2103,466Z" fill="#3a6c98" stroke="#3a6c98" stroke-width="1.51"/><path d="M2097,216L2061,377L2103,466Z" fill="#507290" stroke="#507290" stroke-width="1.51"/><path d="M2076,590L2093,826L2103,466Z" fill="#296092" stroke="#296092" stroke-width="1.51"/><path d="M2081,1084L1959,1078L2107,1201Z" fill="#1a2b7c" stroke="#1a2b7c" stroke-width="1.51"/><path d="M1959,1078L1937,1232L2107,1201Z" fill="#192979" stroke="#192979" stroke-width="1.51"/><path d="M2091,994L2081,1084L2107,1201Z" fill="#192b7c" stroke="#192b7c" stroke-width="1.51"/><path d="M2103,466L2093,826L2107,1201Z" fill="#1c4989" stroke="#1c4989" stroke-width="1.51"/><path d="M2093,826L2091,994L2107,1201Z" fill="#1a357f" stroke="#1a357f" stroke-width="1.51"/><path d="M1952,107L2097,216L2113,83Z" fill="#798091" stroke="#798091" stroke-width="1.51"/><path d="M2063,-2L1952,107L2113,83Z" fill="#818492" stroke="#818492" stroke-width="1.51"/><path d="M2069,-132L2063,-2L2113,83Z" fill="#87858d" stroke="#87858d" stroke-width="1.51"/><path d="M2097,216L2103,466L2113,83Z" fill="#63778d" stroke="#63778d" stroke-width="1.51"/><path d="M2103,466L2107,1201L2113,83Z" fill="#2c6390" stroke="#2c6390" stroke-width="1.51"/><path d="M1973,217L1931,341L2061,377Z" fill="#5e7999" stroke="#5e7999" stroke-width="1.51"/><path d="M2061,377L1947,475L2103,466Z" fill="#467097" stroke="#467097" stroke-width="1.51"/><path d="M1943,-33L2063,-2L2069,-132Z" fill="#8c8896" stroke="#8c8896" stroke-width="1.51"/><path d="M1959,1078L2081,1084L2091,994Z" fill="#1c3282" stroke="#1c3282" stroke-width="1.51"/><path d="M1961,961L1959,1078L2091,994Z" fill="#1e3889" stroke="#1e3889" stroke-width="1.51"/><path d="M2058,740L1975,748L2093,826Z" fill="#205493" stroke="#205493" stroke-width="1.51"/><path d="M1975,748L1936,850L2093,826Z" fill="#225195" stroke="#225195" stroke-width="1.51"/><path d="M1944,-119L1943,-33L2069,-132Z" fill="#908a9e" stroke="#908a9e" stroke-width="1.51"/><path d="M1947,475L1969,617L2076,590Z" fill="#356a9d" stroke="#356a9d" stroke-width="1.51"/><path d="M1969,617L1975,748L2058,740Z" fill="#265d9a" stroke="#265d9a" stroke-width="1.51"/><path d="M1943,-33L1952,107L2063,-2Z" fill="#898798" stroke="#898798" stroke-width="1.51"/><path d="M1931,341L1947,475L2061,377Z" fill="#50759c" stroke="#50759c" stroke-width="1.51"/><path d="M576,1224L236,1228L732,1247Z" fill="#657a92" stroke="#657a92" stroke-width="1.51"/><path d="M1931,341L1858,453L1947,475Z" fill="#5077a4" stroke="#5077a4" stroke-width="1.51"/><path d="M1849,119L1836,199L1952,107Z" fill="#8489a4" stroke="#8489a4" stroke-width="1.51"/><path d="M1943,-33L1849,119L1952,107Z" fill="#8a8a9f" stroke="#8a8a9f" stroke-width="1.51"/><path d="M1839,1081L1937,1232L1959,1078Z" fill="#203089" stroke="#203089" stroke-width="1.51"/><path d="M1862,979L1959,1078L1961,961Z" fill="#223c91" stroke="#223c91" stroke-width="1.51"/><path d="M1936,850L1862,979L1961,961Z" fill="#224496" stroke="#224496" stroke-width="1.51"/><path d="M1947,475L1814,576L1969,617Z" fill="#3a6fa6" stroke="#3a6fa6" stroke-width="1.51"/><path d="M1952,107L1836,199L1973,217Z" fill="#7d869f" stroke="#7d869f" stroke-width="1.51"/><path d="M1836,199L1931,341L1973,217Z" fill="#6f81a1" stroke="#6f81a1" stroke-width="1.51"/><path d="M1859,828L1936,850L1975,748Z" fill="#26549d" stroke="#26549d" stroke-width="1.51"/><path d="M1822,712L1859,828L1975,748Z" fill="#295ca4" stroke="#295ca4" stroke-width="1.51"/><path d="M1969,617L1822,712L1975,748Z" fill="#2c62a3" stroke="#2c62a3" stroke-width="1.51"/><path d="M1836,199L1828,329L1931,341Z" fill="#6a81a7" stroke="#6a81a7" stroke-width="1.51"/><path d="M1847,-50L1849,119L1943,-33Z" fill="#918da3" stroke="#918da3" stroke-width="1.51"/><path d="M1858,453L1814,576L1947,475Z" fill="#4575a9" stroke="#4575a9" stroke-width="1.51"/><path d="M1862,979L1839,1081L1959,1078Z" fill="#243993" stroke="#243993" stroke-width="1.51"/><path d="M1814,576L1822,712L1969,617Z" fill="#356aa9" stroke="#356aa9" stroke-width="1.51"/><path d="M1847,-50L1943,-33L1944,-119Z" fill="#948ea4" stroke="#948ea4" stroke-width="1.51"/><path d="M1839,1081L1812,1247L1937,1232Z" fill="#1e2e84" stroke="#1e2e84" stroke-width="1.51"/><path d="M1859,828L1862,979L1936,850Z" fill="#264c9c" stroke="#264c9c" stroke-width="1.51"/><path d="M1828,329L1858,453L1931,341Z" fill="#597ba7" stroke="#597ba7" stroke-width="1.51"/><path d="M1831,-149L1847,-50L1944,-119Z" fill="#9890ac" stroke="#9890ac" stroke-width="1.51"/><path d="M1722,236L1828,329L1836,199Z" fill="#7388aa" stroke="#7388aa" stroke-width="1.51"/><path d="M1736,1235L1812,1247L1839,1081Z" fill="#1f3288" stroke="#1f3288" stroke-width="1.51"/><path d="M1684,1129L1736,1235L1839,1081Z" fill="#223890" stroke="#223890" stroke-width="1.51"/><path d="M1701,-35L1697,84L1847,-50Z" fill="#9697a9" stroke="#9697a9" stroke-width="1.51"/><path d="M1847,-50L1697,84L1849,119Z" fill="#9092a8" stroke="#9092a8" stroke-width="1.51"/><path d="M1733,490L1814,576L1858,453Z" fill="#4479ad" stroke="#4479ad" stroke-width="1.51"/><path d="M1828,329L1714,338L1858,453Z" fill="#5a80ab" stroke="#5a80ab" stroke-width="1.51"/><path d="M1714,338L1733,490L1858,453Z" fill="#5280ad" stroke="#5280ad" stroke-width="1.51"/><path d="M1822,712L1719,833L1859,828Z" fill="#2a5da8" stroke="#2a5da8" stroke-width="1.51"/><path d="M1719,833L1718,971L1859,828Z" fill="#2754a4" stroke="#2754a4" stroke-width="1.51"/><path d="M1859,828L1718,971L1862,979Z" fill="#264b9f" stroke="#264b9f" stroke-width="1.51"/><path d="M1718,971L1839,1081L1862,979Z" fill="#26429b" stroke="#26429b" stroke-width="1.51"/><path d="M-166,-162L197,-150L342,-166Z" fill="#f0f9c0" stroke="#f0f9c0" stroke-width="1.51"/><path d="M1814,576L1687,598L1822,712Z" fill="#3571ae" stroke="#3571ae" stroke-width="1.51"/><path d="M1704,737L1719,833L1822,712Z" fill="#2965ac" stroke="#2965ac" stroke-width="1.51"/><path d="M1831,-149L1701,-35L1847,-50Z" fill="#9995ad" stroke="#9995ad" stroke-width="1.51"/><path d="M1697,84L1836,199L1849,119Z" fill="#878fa9" stroke="#878fa9" stroke-width="1.51"/><path d="M1697,84L1722,236L1836,199Z" fill="#8291aa" stroke="#8291aa" stroke-width="1.51"/><path d="M1722,236L1714,338L1828,329Z" fill="#6988ab" stroke="#6988ab" stroke-width="1.51"/><path d="M1688,-155L1701,-35L1831,-149Z" fill="#9b9ab2" stroke="#9b9ab2" stroke-width="1.51"/><path d="M1718,971L1684,1129L1839,1081Z" fill="#26419a" stroke="#26419a" stroke-width="1.51"/><path d="M1687,598L1704,737L1822,712Z" fill="#2f6eaf" stroke="#2f6eaf" stroke-width="1.51"/><path d="M1733,490L1687,598L1814,576Z" fill="#3b7ab0" stroke="#3b7ab0" stroke-width="1.51"/><path d="M1060,1225L978,1233L1190,1232Z" fill="#2d6396" stroke="#2d6396" stroke-width="1.51"/><path d="M1614,1074L1684,1129L1718,971Z" fill="#26469d" stroke="#26469d" stroke-width="1.51"/><path d="M1607,978L1614,1074L1718,971Z" fill="#264da0" stroke="#264da0" stroke-width="1.51"/><path d="M1607,870L1718,971L1719,833Z" fill="#2558a5" stroke="#2558a5" stroke-width="1.51"/><path d="M1697,84L1561,218L1722,236Z" fill="#8197ad" stroke="#8197ad" stroke-width="1.51"/><path d="M1714,338L1604,467L1733,490Z" fill="#5086b0" stroke="#5086b0" stroke-width="1.51"/><path d="M1604,467L1687,598L1733,490Z" fill="#4082b2" stroke="#4082b2" stroke-width="1.51"/><path d="M1684,1129L1613,1214L1736,1235Z" fill="#1f3b8b" stroke="#1f3b8b" stroke-width="1.51"/><path d="M1561,104L1561,218L1697,84Z" fill="#879dae" stroke="#879dae" stroke-width="1.51"/><path d="M1607,870L1607,978L1718,971Z" fill="#2555a4" stroke="#2555a4" stroke-width="1.51"/><path d="M1584,327L1714,338L1722,236Z" fill="#688eae" stroke="#688eae" stroke-width="1.51"/><path d="M1591,593L1610,753L1687,598Z" fill="#3079b3" stroke="#3079b3" stroke-width="1.51"/><path d="M1565,-17L1697,84L1701,-35Z" fill="#949eac" stroke="#949eac" stroke-width="1.51"/><path d="M1687,598L1610,753L1704,737Z" fill="#2b72b1" stroke="#2b72b1" stroke-width="1.51"/><path d="M1584,327L1604,467L1714,338Z" fill="#588cb0" stroke="#588cb0" stroke-width="1.51"/><path d="M1704,737L1610,753L1719,833Z" fill="#2768ad" stroke="#2768ad" stroke-width="1.51"/><path d="M1561,218L1584,327L1722,236Z" fill="#7095af" stroke="#7095af" stroke-width="1.51"/><path d="M1604,467L1591,593L1687,598Z" fill="#3982b4" stroke="#3982b4" stroke-width="1.51"/><path d="M1688,-155L1585,-160L1701,-35Z" fill="#9ba0b5" stroke="#9ba0b5" stroke-width="1.51"/><path d="M1610,753L1607,870L1719,833Z" fill="#2664ab" stroke="#2664ab" stroke-width="1.51"/><path d="M1585,-160L1565,-17L1701,-35Z" fill="#9aa3b2" stroke="#9aa3b2" stroke-width="1.51"/><path d="M1565,-17L1561,104L1697,84Z" fill="#90a0ae" stroke="#90a0ae" stroke-width="1.51"/><path d="M1614,1074L1613,1214L1684,1129Z" fill="#234095" stroke="#234095" stroke-width="1.51"/><path d="M1485,341L1480,449L1584,327Z" fill="#5896b4" stroke="#5896b4" stroke-width="1.51"/><path d="M1489,-40L1565,-17L1585,-160Z" fill="#9aa8b5" stroke="#9aa8b5" stroke-width="1.51"/><path d="M1480,449L1591,593L1604,467Z" fill="#408ab5" stroke="#408ab5" stroke-width="1.51"/><path d="M1584,327L1480,449L1604,467Z" fill="#5190b4" stroke="#5190b4" stroke-width="1.51"/><path d="M1440,871L1488,997L1607,870Z" fill="#2362aa" stroke="#2362aa" stroke-width="1.51"/><path d="M1607,870L1488,997L1607,978Z" fill="#2459a5" stroke="#2459a5" stroke-width="1.51"/><path d="M1591,593L1463,705L1610,753Z" fill="#297cb5" stroke="#297cb5" stroke-width="1.51"/><path d="M1440,871L1607,870L1610,753Z" fill="#2369ae" stroke="#2369ae" stroke-width="1.51"/><path d="M1463,705L1440,871L1610,753Z" fill="#2375b3" stroke="#2375b3" stroke-width="1.51"/><path d="M1607,978L1488,997L1614,1074Z" fill="#2552a2" stroke="#2552a2" stroke-width="1.51"/><path d="M1488,997L1449,1116L1614,1074Z" fill="#2751a2" stroke="#2751a2" stroke-width="1.51"/><path d="M1485,1210L1613,1214L1614,1074Z" fill="#214493" stroke="#214493" stroke-width="1.51"/><path d="M1449,1116L1485,1210L1614,1074Z" fill="#244a9a" stroke="#244a9a" stroke-width="1.51"/><path d="M1561,104L1485,201L1561,218Z" fill="#82a1b0" stroke="#82a1b0" stroke-width="1.51"/><path d="M1472,105L1561,104L1565,-17Z" fill="#90a6b0" stroke="#90a6b0" stroke-width="1.51"/><path d="M1561,218L1485,341L1584,327Z" fill="#6898b2" stroke="#6898b2" stroke-width="1.51"/><path d="M1443,-147L1489,-40L1585,-160Z" fill="#9cadba" stroke="#9cadba" stroke-width="1.51"/><path d="M1480,449L1432,615L1591,593Z" fill="#368db8" stroke="#368db8" stroke-width="1.51"/><path d="M1432,615L1463,705L1591,593Z" fill="#2e85b8" stroke="#2e85b8" stroke-width="1.51"/><path d="M1489,-40L1472,105L1565,-17Z" fill="#95aab2" stroke="#95aab2" stroke-width="1.51"/><path d="M1472,105L1485,201L1561,104Z" fill="#88a5b2" stroke="#88a5b2" stroke-width="1.51"/><path d="M1485,201L1485,341L1561,218Z" fill="#729eb3" stroke="#729eb3" stroke-width="1.51"/><path d="M1104,-129L1188,-119L1329,-146Z" fill="#a3c8c6" stroke="#a3c8c6" stroke-width="1.51"/><path d="M1338,748L1440,871L1463,705Z" fill="#227db7" stroke="#227db7" stroke-width="1.51"/><path d="M1312,-10L1325,90L1472,105Z" fill="#92b5b6" stroke="#92b5b6" stroke-width="1.51"/><path d="M1320,326L1333,470L1480,449Z" fill="#50a0ba" stroke="#50a0ba" stroke-width="1.51"/><path d="M1333,470L1432,615L1480,449Z" fill="#3d97bb" stroke="#3d97bb" stroke-width="1.51"/><path d="M1472,105L1353,238L1485,201Z" fill="#81aab5" stroke="#81aab5" stroke-width="1.51"/><path d="M1320,326L1480,449L1485,341Z" fill="#589eb8" stroke="#589eb8" stroke-width="1.51"/><path d="M1485,201L1353,238L1485,341Z" fill="#71a4b6" stroke="#71a4b6" stroke-width="1.51"/><path d="M1353,238L1320,326L1485,341Z" fill="#68a7b8" stroke="#68a7b8" stroke-width="1.51"/><path d="M1354,986L1449,1116L1488,997Z" fill="#275ba7" stroke="#275ba7" stroke-width="1.51"/><path d="M1440,871L1354,986L1488,997Z" fill="#2564ab" stroke="#2564ab" stroke-width="1.51"/><path d="M1312,-10L1472,105L1489,-40Z" fill="#96b2b4" stroke="#96b2b4" stroke-width="1.51"/><path d="M1443,-147L1312,-10L1489,-40Z" fill="#9cb5b9" stroke="#9cb5b9" stroke-width="1.51"/><path d="M1354,986L1352,1108L1449,1116Z" fill="#295ba7" stroke="#295ba7" stroke-width="1.51"/><path d="M1325,90L1353,238L1472,105Z" fill="#88b1b7" stroke="#88b1b7" stroke-width="1.51"/><path d="M1449,1116L1352,1108L1485,1210Z" fill="#25519c" stroke="#25519c" stroke-width="1.51"/><path d="M1352,1108L1310,1241L1485,1210Z" fill="#235197" stroke="#235197" stroke-width="1.51"/><path d="M1329,-146L1312,-10L1443,-147Z" fill="#9ebbbf" stroke="#9ebbbf" stroke-width="1.51"/><path d="M1338,748L1321,837L1440,871Z" fill="#237bb6" stroke="#237bb6" stroke-width="1.51"/><path d="M1432,615L1338,748L1463,705Z" fill="#2687bb" stroke="#2687bb" stroke-width="1.51"/><path d="M1312,617L1338,748L1432,615Z" fill="#298ebd" stroke="#298ebd" stroke-width="1.51"/><path d="M1333,470L1312,617L1432,615Z" fill="#3398be" stroke="#3398be" stroke-width="1.51"/><path d="M1321,837L1354,986L1440,871Z" fill="#2370b1" stroke="#2370b1" stroke-width="1.51"/><path d="M842,1226L732,1247L978,1233Z" fill="#3f6d95" stroke="#3f6d95" stroke-width="1.51"/><path d="M829,-169L937,-125L1104,-129Z" fill="#abd9c8" stroke="#abd9c8" stroke-width="1.51"/><path d="M1221,81L1213,243L1325,90Z" fill="#8abdbb" stroke="#8abdbb" stroke-width="1.51"/><path d="M1219,-22L1312,-10L1329,-146Z" fill="#9ec1bd" stroke="#9ec1bd" stroke-width="1.51"/><path d="M1320,326L1199,364L1333,470Z" fill="#55aabe" stroke="#55aabe" stroke-width="1.51"/><path d="M1199,364L1222,476L1333,470Z" fill="#4baac0" stroke="#4baac0" stroke-width="1.51"/><path d="M1222,476L1312,617L1333,470Z" fill="#39a1c0" stroke="#39a1c0" stroke-width="1.51"/><path d="M1312,617L1211,737L1338,748Z" fill="#2291c0" stroke="#2291c0" stroke-width="1.51"/><path d="M1182,1119L1310,1241L1352,1108Z" fill="#275ca0" stroke="#275ca0" stroke-width="1.51"/><path d="M1186,969L1182,1119L1352,1108Z" fill="#2c68ac" stroke="#2c68ac" stroke-width="1.51"/><path d="M1325,90L1213,243L1353,238Z" fill="#81b6ba" stroke="#81b6ba" stroke-width="1.51"/><path d="M1213,243L1320,326L1353,238Z" fill="#70b0bb" stroke="#70b0bb" stroke-width="1.51"/><path d="M1321,837L1235,836L1354,986Z" fill="#2377b4" stroke="#2377b4" stroke-width="1.51"/><path d="M1235,836L1186,969L1354,986Z" fill="#2476b3" stroke="#2476b3" stroke-width="1.51"/><path d="M1186,969L1352,1108L1354,986Z" fill="#2968ad" stroke="#2968ad" stroke-width="1.51"/><path d="M1222,476L1198,590L1312,617Z" fill="#31a2c2" stroke="#31a2c2" stroke-width="1.51"/><path d="M1182,1119L1190,1232L1310,1241Z" fill="#265d9a" stroke="#265d9a" stroke-width="1.51"/><path d="M1312,-10L1221,81L1325,90Z" fill="#94bdba" stroke="#94bdba" stroke-width="1.51"/><path d="M1188,-119L1219,-22L1329,-146Z" fill="#a0c5c2" stroke="#a0c5c2" stroke-width="1.51"/><path d="M1235,836L1321,837L1338,748Z" fill="#2282ba" stroke="#2282ba" stroke-width="1.51"/><path d="M1211,737L1235,836L1338,748Z" fill="#1f8abd" stroke="#1f8abd" stroke-width="1.51"/><path d="M1198,590L1211,737L1312,617Z" fill="#2999c1" stroke="#2999c1" stroke-width="1.51"/><path d="M1219,-22L1221,81L1312,-10Z" fill="#98c2bb" stroke="#98c2bb" stroke-width="1.51"/><path d="M1213,243L1199,364L1320,326Z" fill="#66b2be" stroke="#66b2be" stroke-width="1.51"/><path d="M1112,599L1106,705L1198,590Z" fill="#31a2c2" stroke="#31a2c2" stroke-width="1.51"/><path d="M1198,590L1106,705L1211,737Z" fill="#2b9bc1" stroke="#2b9bc1" stroke-width="1.51"/><path d="M1094,115L1082,226L1213,243Z" fill="#85c2bc" stroke="#85c2bc" stroke-width="1.51"/><path d="M1219,-22L1067,1L1221,81Z" fill="#9bc7bb" stroke="#9bc7bb" stroke-width="1.51"/><path d="M1094,115L1213,243L1221,81Z" fill="#8bc1bc" stroke="#8bc1bc" stroke-width="1.51"/><path d="M1211,737L1085,869L1235,836Z" fill="#288abb" stroke="#288abb" stroke-width="1.51"/><path d="M1085,869L1186,969L1235,836Z" fill="#2a80b6" stroke="#2a80b6" stroke-width="1.51"/><path d="M1078,1073L1182,1119L1186,969Z" fill="#326eae" stroke="#326eae" stroke-width="1.51"/><path d="M1104,-129L1067,1L1188,-119Z" fill="#a3cdc1" stroke="#a3cdc1" stroke-width="1.51"/><path d="M1080,477L1112,599L1198,590Z" fill="#38aac3" stroke="#38aac3" stroke-width="1.51"/><path d="M1106,705L1085,869L1211,737Z" fill="#2a92bf" stroke="#2a92bf" stroke-width="1.51"/><path d="M1066,346L1199,364L1213,243Z" fill="#67b7be" stroke="#67b7be" stroke-width="1.51"/><path d="M1082,226L1066,346L1213,243Z" fill="#73bdbe" stroke="#73bdbe" stroke-width="1.51"/><path d="M1188,-119L1067,1L1219,-22Z" fill="#a0cabd" stroke="#a0cabd" stroke-width="1.51"/><path d="M1067,1L1094,115L1221,81Z" fill="#96c8bb" stroke="#96c8bb" stroke-width="1.51"/><path d="M1199,364L1080,477L1222,476Z" fill="#4eafc0" stroke="#4eafc0" stroke-width="1.51"/><path d="M1080,477L1198,590L1222,476Z" fill="#3eaac2" stroke="#3eaac2" stroke-width="1.51"/><path d="M-166,-162L-43,-145L197,-150Z" fill="#f6fcc4" stroke="#f6fcc4" stroke-width="1.51"/><path d="M1085,869L1073,973L1186,969Z" fill="#2f7db4" stroke="#2f7db4" stroke-width="1.51"/><path d="M1073,973L1078,1073L1186,969Z" fill="#3376b0" stroke="#3376b0" stroke-width="1.51"/><path d="M1182,1119L1060,1225L1190,1232Z" fill="#2b629c" stroke="#2b629c" stroke-width="1.51"/><path d="M1066,346L1080,477L1199,364Z" fill="#58b5c0" stroke="#58b5c0" stroke-width="1.51"/><path d="M361,1209L236,1228L576,1224Z" fill="#757f93" stroke="#757f93" stroke-width="1.51"/><path d="M1078,1073L1060,1225L1182,1119Z" fill="#3368a5" stroke="#3368a5" stroke-width="1.51"/><path d="M484,1210L361,1209L576,1224Z" fill="#6c7d95" stroke="#6c7d95" stroke-width="1.51"/><path d="M969,1089L1060,1225L1078,1073Z" fill="#386da7" stroke="#386da7" stroke-width="1.51"/><path d="M1066,346L982,451L1080,477Z" fill="#56b8c1" stroke="#56b8c1" stroke-width="1.51"/><path d="M937,-125L1067,1L1104,-129Z" fill="#a6d2c2" stroke="#a6d2c2" stroke-width="1.51"/><path d="M958,824L1085,869L1106,705Z" fill="#3094bd" stroke="#3094bd" stroke-width="1.51"/><path d="M934,741L958,824L1106,705Z" fill="#329dc0" stroke="#329dc0" stroke-width="1.51"/><path d="M962,583L1106,705L1112,599Z" fill="#36a6c3" stroke="#36a6c3" stroke-width="1.51"/><path d="M1080,477L962,583L1112,599Z" fill="#3caec4" stroke="#3caec4" stroke-width="1.51"/><path d="M937,-125L970,5L1067,1Z" fill="#a5d5be" stroke="#a5d5be" stroke-width="1.51"/><path d="M964,78L1082,226L1094,115Z" fill="#90cabc" stroke="#90cabc" stroke-width="1.51"/><path d="M1067,1L964,78L1094,115Z" fill="#9acebc" stroke="#9acebc" stroke-width="1.51"/><path d="M962,583L934,741L1106,705Z" fill="#34a6c3" stroke="#34a6c3" stroke-width="1.51"/><path d="M1073,973L975,990L1078,1073Z" fill="#3879b1" stroke="#3879b1" stroke-width="1.51"/><path d="M982,451L962,583L1080,477Z" fill="#48b5c3" stroke="#48b5c3" stroke-width="1.51"/><path d="M937,252L1066,346L1082,226Z" fill="#76c3be" stroke="#76c3be" stroke-width="1.51"/><path d="M964,78L937,252L1082,226Z" fill="#8accbd" stroke="#8accbd" stroke-width="1.51"/><path d="M975,990L1073,973L1085,869Z" fill="#3481b4" stroke="#3481b4" stroke-width="1.51"/><path d="M969,1089L978,1233L1060,1225Z" fill="#356b9e" stroke="#356b9e" stroke-width="1.51"/><path d="M970,5L964,78L1067,1Z" fill="#9fd2bc" stroke="#9fd2bc" stroke-width="1.51"/><path d="M975,990L969,1089L1078,1073Z" fill="#3b77af" stroke="#3b77af" stroke-width="1.51"/><path d="M958,824L975,990L1085,869Z" fill="#3589b7" stroke="#3589b7" stroke-width="1.51"/><path d="M953,368L982,451L1066,346Z" fill="#5dbdc1" stroke="#5dbdc1" stroke-width="1.51"/><path d="M937,252L953,368L1066,346Z" fill="#6cc2bf" stroke="#6cc2bf" stroke-width="1.51"/><path d="M850,622L845,711L934,741Z" fill="#43aac2" stroke="#43aac2" stroke-width="1.51"/><path d="M850,622L934,741L962,583Z" fill="#40acc3" stroke="#40acc3" stroke-width="1.51"/><path d="M847,225L937,252L964,78Z" fill="#8fcfbc" stroke="#8fcfbc" stroke-width="1.51"/><path d="M819,79L847,225L964,78Z" fill="#9bd4bb" stroke="#9bd4bb" stroke-width="1.51"/><path d="M937,-125L843,1L970,5Z" fill="#a9d9bd" stroke="#a9d9bd" stroke-width="1.51"/><path d="M958,824L841,871L975,990Z" fill="#3d8db7" stroke="#3d8db7" stroke-width="1.51"/><path d="M841,871L840,972L975,990Z" fill="#4488b4" stroke="#4488b4" stroke-width="1.51"/><path d="M840,972L969,1089L975,990Z" fill="#407eb0" stroke="#407eb0" stroke-width="1.51"/><path d="M969,1089L842,1226L978,1233Z" fill="#3b6e9f" stroke="#3b6e9f" stroke-width="1.51"/><path d="M953,368L819,376L982,451Z" fill="#62c0c0" stroke="#62c0c0" stroke-width="1.51"/><path d="M819,376L818,506L982,451Z" fill="#5ebfc1" stroke="#5ebfc1" stroke-width="1.51"/><path d="M818,506L962,583L982,451Z" fill="#4db9c3" stroke="#4db9c3" stroke-width="1.51"/><path d="M807,1075L842,1226L969,1089Z" fill="#4675a7" stroke="#4675a7" stroke-width="1.51"/><path d="M840,972L807,1075L969,1089Z" fill="#487dae" stroke="#487dae" stroke-width="1.51"/><path d="M843,1L964,78L970,5Z" fill="#a2d6bb" stroke="#a2d6bb" stroke-width="1.51"/><path d="M818,506L850,622L962,583Z" fill="#4bb6c3" stroke="#4bb6c3" stroke-width="1.51"/><path d="M937,252L819,376L953,368Z" fill="#6fc5be" stroke="#6fc5be" stroke-width="1.51"/><path d="M843,1L819,79L964,78Z" fill="#a3d7bb" stroke="#a3d7bb" stroke-width="1.51"/><path d="M934,741L841,871L958,824Z" fill="#3d99bc" stroke="#3d99bc" stroke-width="1.51"/><path d="M847,225L819,376L937,252Z" fill="#7dcabd" stroke="#7dcabd" stroke-width="1.51"/><path d="M845,711L841,871L934,741Z" fill="#42a0be" stroke="#42a0be" stroke-width="1.51"/><path d="M829,-169L843,1L937,-125Z" fill="#afdcc2" stroke="#afdcc2" stroke-width="1.51"/><path d="M342,-166L484,-152L557,-163Z" fill="#d6efc2" stroke="#d6efc2" stroke-width="1.51"/><path d="M702,1092L732,1247L807,1075Z" fill="#5378a4" stroke="#5378a4" stroke-width="1.51"/><path d="M736,200L691,373L819,376Z" fill="#80ccbc" stroke="#80ccbc" stroke-width="1.51"/><path d="M732,476L818,506L819,376Z" fill="#66c2c0" stroke="#66c2c0" stroke-width="1.51"/><path d="M725,122L736,200L819,79Z" fill="#a1d8b9" stroke="#a1d8b9" stroke-width="1.51"/><path d="M692,-165L734,-10L829,-169Z" fill="#b8e0c2" stroke="#b8e0c2" stroke-width="1.51"/><path d="M716,972L807,1075L840,972Z" fill="#5085af" stroke="#5085af" stroke-width="1.51"/><path d="M720,745L706,866L841,871Z" fill="#519db9" stroke="#519db9" stroke-width="1.51"/><path d="M716,972L840,972L841,871Z" fill="#4e8cb3" stroke="#4e8cb3" stroke-width="1.51"/><path d="M706,866L716,972L841,871Z" fill="#5192b5" stroke="#5192b5" stroke-width="1.51"/><path d="M807,1075L732,1247L842,1226Z" fill="#4a739d" stroke="#4a739d" stroke-width="1.51"/><path d="M829,-169L734,-10L843,1Z" fill="#b2ddbd" stroke="#b2ddbd" stroke-width="1.51"/><path d="M720,745L841,871L845,711Z" fill="#4ba2bd" stroke="#4ba2bd" stroke-width="1.51"/><path d="M819,79L736,200L847,225Z" fill="#9bd5ba" stroke="#9bd5ba" stroke-width="1.51"/><path d="M736,200L819,376L847,225Z" fill="#87cebc" stroke="#87cebc" stroke-width="1.51"/><path d="M732,615L845,711L850,622Z" fill="#4fb1c1" stroke="#4fb1c1" stroke-width="1.51"/><path d="M818,506L732,615L850,622Z" fill="#54b8c1" stroke="#54b8c1" stroke-width="1.51"/><path d="M734,-10L819,79L843,1Z" fill="#acdbb9" stroke="#acdbb9" stroke-width="1.51"/><path d="M732,615L720,745L845,711Z" fill="#51aec0" stroke="#51aec0" stroke-width="1.51"/><path d="M732,476L732,615L818,506Z" fill="#5cbec1" stroke="#5cbec1" stroke-width="1.51"/><path d="M691,373L732,476L819,376Z" fill="#71c6be" stroke="#71c6be" stroke-width="1.51"/><path d="M734,-10L725,122L819,79Z" fill="#aadbb8" stroke="#aadbb8" stroke-width="1.51"/><path d="M716,972L702,1092L807,1075Z" fill="#5682ad" stroke="#5682ad" stroke-width="1.51"/><path d="M576,238L574,326L691,373Z" fill="#8ed3ba" stroke="#8ed3ba" stroke-width="1.51"/><path d="M569,1124L576,1224L702,1092Z" fill="#607ca1" stroke="#607ca1" stroke-width="1.51"/><path d="M691,373L577,483L732,476Z" fill="#72c7be" stroke="#72c7be" stroke-width="1.51"/><path d="M577,483L568,578L732,476Z" fill="#6ec5bf" stroke="#6ec5bf" stroke-width="1.51"/><path d="M555,714L720,745L732,615Z" fill="#5cb2be" stroke="#5cb2be" stroke-width="1.51"/><path d="M568,578L555,714L732,615Z" fill="#67babe" stroke="#67babe" stroke-width="1.51"/><path d="M732,476L568,578L732,615Z" fill="#63bfc0" stroke="#63bfc0" stroke-width="1.51"/><path d="M702,1092L576,1224L732,1247Z" fill="#55769a" stroke="#55769a" stroke-width="1.51"/><path d="M692,-165L578,-5L734,-10Z" fill="#bbe3ba" stroke="#bbe3ba" stroke-width="1.51"/><path d="M575,96L725,122L734,-10Z" fill="#afdeb7" stroke="#afdeb7" stroke-width="1.51"/><path d="M578,-5L575,96L734,-10Z" fill="#b8e2b6" stroke="#b8e2b6" stroke-width="1.51"/><path d="M725,122L576,238L736,200Z" fill="#9fd9b9" stroke="#9fd9b9" stroke-width="1.51"/><path d="M576,238L691,373L736,200Z" fill="#90d3ba" stroke="#90d3ba" stroke-width="1.51"/><path d="M559,851L706,866L720,745Z" fill="#5ba1b8" stroke="#5ba1b8" stroke-width="1.51"/><path d="M575,96L576,238L725,122Z" fill="#abddb7" stroke="#abddb7" stroke-width="1.51"/><path d="M706,866L581,950L716,972Z" fill="#5a92b1" stroke="#5a92b1" stroke-width="1.51"/><path d="M581,950L702,1092L716,972Z" fill="#5c89ae" stroke="#5c89ae" stroke-width="1.51"/><path d="M555,714L559,851L720,745Z" fill="#64aabb" stroke="#64aabb" stroke-width="1.51"/><path d="M557,-163L578,-5L692,-165Z" fill="#c4e7bf" stroke="#c4e7bf" stroke-width="1.51"/><path d="M581,950L569,1124L702,1092Z" fill="#6385ab" stroke="#6385ab" stroke-width="1.51"/><path d="M559,851L581,950L706,866Z" fill="#6299b4" stroke="#6299b4" stroke-width="1.51"/><path d="M574,326L577,483L691,373Z" fill="#80cdbc" stroke="#80cdbc" stroke-width="1.51"/><path d="M555,714L450,734L559,851Z" fill="#71afba" stroke="#71afba" stroke-width="1.51"/><path d="M450,734L437,826L559,851Z" fill="#76abb8" stroke="#76abb8" stroke-width="1.51"/><path d="M465,621L555,714L568,578Z" fill="#75bebe" stroke="#75bebe" stroke-width="1.51"/><path d="M459,996L466,1124L569,1124Z" fill="#7487a9" stroke="#7487a9" stroke-width="1.51"/><path d="M461,256L474,329L574,326Z" fill="#9ed8b8" stroke="#9ed8b8" stroke-width="1.51"/><path d="M461,256L574,326L576,238Z" fill="#a0d9b8" stroke="#a0d9b8" stroke-width="1.51"/><path d="M575,96L474,106L576,238Z" fill="#b6e1b6" stroke="#b6e1b6" stroke-width="1.51"/><path d="M474,106L461,256L576,238Z" fill="#b2e0b6" stroke="#b2e0b6" stroke-width="1.51"/><path d="M569,1124L484,1210L576,1224Z" fill="#667c9a" stroke="#667c9a" stroke-width="1.51"/><path d="M452,477L568,578L577,483Z" fill="#7dc9be" stroke="#7dc9be" stroke-width="1.51"/><path d="M574,326L474,329L577,483Z" fill="#8cd1ba" stroke="#8cd1ba" stroke-width="1.51"/><path d="M474,329L452,477L577,483Z" fill="#8bcfbb" stroke="#8bcfbb" stroke-width="1.51"/><path d="M557,-163L484,-152L578,-5Z" fill="#cbeabe" stroke="#cbeabe" stroke-width="1.51"/><path d="M484,-152L467,-14L578,-5Z" fill="#cceab8" stroke="#cceab8" stroke-width="1.51"/><path d="M474,106L575,96L578,-5Z" fill="#bee4b5" stroke="#bee4b5" stroke-width="1.51"/><path d="M467,-14L474,106L578,-5Z" fill="#c6e8b5" stroke="#c6e8b5" stroke-width="1.51"/><path d="M459,996L569,1124L581,950Z" fill="#6e8cac" stroke="#6e8cac" stroke-width="1.51"/><path d="M559,851L459,996L581,950Z" fill="#6e97b0" stroke="#6e97b0" stroke-width="1.51"/><path d="M466,1124L484,1210L569,1124Z" fill="#6d809f" stroke="#6d809f" stroke-width="1.51"/><path d="M437,826L459,996L559,851Z" fill="#759eb3" stroke="#759eb3" stroke-width="1.51"/><path d="M452,477L465,621L568,578Z" fill="#7dc7be" stroke="#7dc7be" stroke-width="1.51"/><path d="M465,621L450,734L555,714Z" fill="#78babd" stroke="#78babd" stroke-width="1.51"/><path d="M437,826L332,872L459,996Z" fill="#7ea1b1" stroke="#7ea1b1" stroke-width="1.51"/><path d="M332,872L323,962L459,996Z" fill="#839daf" stroke="#839daf" stroke-width="1.51"/><path d="M357,97L315,242L461,256Z" fill="#c0e6b5" stroke="#c0e6b5" stroke-width="1.51"/><path d="M452,477L352,470L465,621Z" fill="#8acebc" stroke="#8acebc" stroke-width="1.51"/><path d="M459,996L337,1129L466,1124Z" fill="#7d8aa8" stroke="#7d8aa8" stroke-width="1.51"/><path d="M352,470L452,477L474,329Z" fill="#96d3bb" stroke="#96d3bb" stroke-width="1.51"/><path d="M342,328L352,470L474,329Z" fill="#a0d8b9" stroke="#a0d8b9" stroke-width="1.51"/><path d="M467,-14L357,97L474,106Z" fill="#caeab4" stroke="#caeab4" stroke-width="1.51"/><path d="M357,97L461,256L474,106Z" fill="#c1e6b5" stroke="#c1e6b5" stroke-width="1.51"/><path d="M348,-35L467,-14L484,-152Z" fill="#d5efb9" stroke="#d5efb9" stroke-width="1.51"/><path d="M342,-166L348,-35L484,-152Z" fill="#dcf2bd" stroke="#dcf2bd" stroke-width="1.51"/><path d="M466,1124L361,1209L484,1210Z" fill="#73809a" stroke="#73809a" stroke-width="1.51"/><path d="M308,625L336,744L450,734Z" fill="#88bebc" stroke="#88bebc" stroke-width="1.51"/><path d="M308,625L450,734L465,621Z" fill="#85c1bc" stroke="#85c1bc" stroke-width="1.51"/><path d="M352,470L308,625L465,621Z" fill="#8dccbc" stroke="#8dccbc" stroke-width="1.51"/><path d="M348,-35L357,97L467,-14Z" fill="#d4eeb4" stroke="#d4eeb4" stroke-width="1.51"/><path d="M461,256L342,328L474,329Z" fill="#a7dbb8" stroke="#a7dbb8" stroke-width="1.51"/><path d="M323,962L337,1129L459,996Z" fill="#8392aa" stroke="#8392aa" stroke-width="1.51"/><path d="M337,1129L361,1209L466,1124Z" fill="#7b859e" stroke="#7b859e" stroke-width="1.51"/><path d="M336,744L437,826L450,734Z" fill="#81b4b9" stroke="#81b4b9" stroke-width="1.51"/><path d="M315,242L342,328L461,256Z" fill="#b3e0b6" stroke="#b3e0b6" stroke-width="1.51"/><path d="M110,1206L-37,1245L236,1228Z" fill="#888691" stroke="#888691" stroke-width="1.51"/><path d="M336,744L332,872L437,826Z" fill="#86afb6" stroke="#86afb6" stroke-width="1.51"/><path d="M-43,-145L110,-129L197,-150Z" fill="#f2fabe" stroke="#f2fabe" stroke-width="1.51"/><path d="M204,471L227,624L308,625Z" fill="#97cebc" stroke="#97cebc" stroke-width="1.51"/><path d="M198,118L198,208L315,242Z" fill="#cbeab4" stroke="#cbeab4" stroke-width="1.51"/><path d="M308,625L229,713L336,744Z" fill="#8ec1bb" stroke="#8ec1bb" stroke-width="1.51"/><path d="M230,832L332,872L336,744Z" fill="#8bb0b6" stroke="#8bb0b6" stroke-width="1.51"/><path d="M323,962L202,1105L337,1129Z" fill="#8990a8" stroke="#8990a8" stroke-width="1.51"/><path d="M186,360L204,471L342,328Z" fill="#aadcb8" stroke="#aadcb8" stroke-width="1.51"/><path d="M342,-166L197,-150L348,-35Z" fill="#e3f5bc" stroke="#e3f5bc" stroke-width="1.51"/><path d="M342,328L204,471L352,470Z" fill="#a2d8b9" stroke="#a2d8b9" stroke-width="1.51"/><path d="M204,471L308,625L352,470Z" fill="#97d2bc" stroke="#97d2bc" stroke-width="1.51"/><path d="M198,118L315,242L357,97Z" fill="#ceebb4" stroke="#ceebb4" stroke-width="1.51"/><path d="M348,-35L189,-7L357,97Z" fill="#dbf0b3" stroke="#dbf0b3" stroke-width="1.51"/><path d="M189,-7L198,118L357,97Z" fill="#d9f0b3" stroke="#d9f0b3" stroke-width="1.51"/><path d="M337,1129L236,1228L361,1209Z" fill="#7e8498" stroke="#7e8498" stroke-width="1.51"/><path d="M220,948L202,1105L323,962Z" fill="#8c98ab" stroke="#8c98ab" stroke-width="1.51"/><path d="M197,-150L189,-7L348,-35Z" fill="#e4f5b6" stroke="#e4f5b6" stroke-width="1.51"/><path d="M220,948L323,962L332,872Z" fill="#89a0af" stroke="#89a0af" stroke-width="1.51"/><path d="M315,242L186,360L342,328Z" fill="#b3e0b7" stroke="#b3e0b7" stroke-width="1.51"/><path d="M229,713L230,832L336,744Z" fill="#8eb9b9" stroke="#8eb9b9" stroke-width="1.51"/><path d="M202,1105L236,1228L337,1129Z" fill="#85889e" stroke="#85889e" stroke-width="1.51"/><path d="M230,832L220,948L332,872Z" fill="#8ca7b2" stroke="#8ca7b2" stroke-width="1.51"/><path d="M227,624L229,713L308,625Z" fill="#93c6bc" stroke="#93c6bc" stroke-width="1.51"/><path d="M198,208L186,360L315,242Z" fill="#bde4b6" stroke="#bde4b6" stroke-width="1.51"/><path d="M110,-129L189,-7L197,-150Z" fill="#ebf7b9" stroke="#ebf7b9" stroke-width="1.51"/><path d="M113,248L186,360L198,208Z" fill="#c2e6b5" stroke="#c2e6b5" stroke-width="1.51"/><path d="M114,986L202,1105L220,948Z" fill="#9198ab" stroke="#9198ab" stroke-width="1.51"/><path d="M204,471L59,573L227,624Z" fill="#9ed3bc" stroke="#9ed3bc" stroke-width="1.51"/><path d="M227,624L71,755L229,713Z" fill="#97c4bb" stroke="#97c4bb" stroke-width="1.51"/><path d="M89,843L220,948L230,832Z" fill="#92aab2" stroke="#92aab2" stroke-width="1.51"/><path d="M229,713L71,755L230,832Z" fill="#94bab8" stroke="#94bab8" stroke-width="1.51"/><path d="M71,755L89,843L230,832Z" fill="#96b5b6" stroke="#96b5b6" stroke-width="1.51"/><path d="M202,1105L110,1206L236,1228Z" fill="#888799" stroke="#888799" stroke-width="1.51"/><path d="M89,843L114,986L220,948Z" fill="#93a4af" stroke="#93a4af" stroke-width="1.51"/><path d="M59,573L71,755L227,624Z" fill="#9dc9bb" stroke="#9dc9bb" stroke-width="1.51"/><path d="M57,497L59,573L204,471Z" fill="#a6d7bb" stroke="#a6d7bb" stroke-width="1.51"/><path d="M189,-7L98,128L198,118Z" fill="#ddf2b3" stroke="#ddf2b3" stroke-width="1.51"/><path d="M63,-1L98,128L189,-7Z" fill="#e4f4b2" stroke="#e4f4b2" stroke-width="1.51"/><path d="M98,128L198,208L198,118Z" fill="#d6eeb3" stroke="#d6eeb3" stroke-width="1.51"/><path d="M114,986L85,1108L202,1105Z" fill="#9393a8" stroke="#9393a8" stroke-width="1.51"/><path d="M85,1108L110,1206L202,1105Z" fill="#8f8ca0" stroke="#8f8ca0" stroke-width="1.51"/><path d="M186,360L74,371L204,471Z" fill="#afddb8" stroke="#afddb8" stroke-width="1.51"/><path d="M74,371L57,497L204,471Z" fill="#addbb9" stroke="#addbb9" stroke-width="1.51"/><path d="M110,-129L63,-1L189,-7Z" fill="#ebf7b4" stroke="#ebf7b4" stroke-width="1.51"/><path d="M98,128L113,248L198,208Z" fill="#d1edb4" stroke="#d1edb4" stroke-width="1.51"/><path d="M113,248L74,371L186,360Z" fill="#bae3b6" stroke="#bae3b6" stroke-width="1.51"/><path d="M63,-1L-35,104L98,128Z" fill="#e4f5b4" stroke="#e4f5b4" stroke-width="1.51"/><path d="M-13,-8L63,-1L110,-129Z" fill="#eff8b5" stroke="#eff8b5" stroke-width="1.51"/><path d="M-43,-145L-13,-8L110,-129Z" fill="#f2fabc" stroke="#f2fabc" stroke-width="1.51"/><path d="M85,1108L-37,1245L110,1206Z" fill="#8e8998" stroke="#8e8998" stroke-width="1.51"/><path d="M-29,342L74,371L113,248Z" fill="#c0e5b7" stroke="#c0e5b7" stroke-width="1.51"/><path d="M-45,236L-29,342L113,248Z" fill="#c9e8b9" stroke="#c9e8b9" stroke-width="1.51"/><path d="M98,128L-45,236L113,248Z" fill="#d4edb5" stroke="#d4edb5" stroke-width="1.51"/><path d="M-47,1083L85,1108L114,986Z" fill="#9895aa" stroke="#9895aa" stroke-width="1.51"/><path d="M-40,961L-47,1083L114,986Z" fill="#999cae" stroke="#999cae" stroke-width="1.51"/><path d="M89,843L-40,961L114,986Z" fill="#99a5af" stroke="#99a5af" stroke-width="1.51"/><path d="M59,573L-65,754L71,755Z" fill="#a0c7be" stroke="#a0c7be" stroke-width="1.51"/><path d="M-35,104L-45,236L98,128Z" fill="#ddf2b7" stroke="#ddf2b7" stroke-width="1.51"/><path d="M-62,574L-65,754L59,573Z" fill="#a4cec1" stroke="#a4cec1" stroke-width="1.51"/><path d="M-25,487L57,497L74,371Z" fill="#b0ddbc" stroke="#b0ddbc" stroke-width="1.51"/><path d="M-47,1083L-37,1245L85,1108Z" fill="#948ea3" stroke="#948ea3" stroke-width="1.51"/><path d="M-51,836L-40,961L89,843Z" fill="#9badb5" stroke="#9badb5" stroke-width="1.51"/><path d="M-13,-8L-35,104L63,-1Z" fill="#eaf7b6" stroke="#eaf7b6" stroke-width="1.51"/><path d="M71,755L-51,836L89,843Z" fill="#9cb7b7" stroke="#9cb7b7" stroke-width="1.51"/><path d="M-29,342L-25,487L74,371Z" fill="#b6e0bb" stroke="#b6e0bb" stroke-width="1.51"/><path d="M-65,754L-51,836L71,755Z" fill="#9dbcbc" stroke="#9dbcbc" stroke-width="1.51"/><path d="M57,497L-25,487L59,573Z" fill="#a9d9bd" stroke="#a9d9bd" stroke-width="1.51"/><path d="M-25,487L-62,574L59,573Z" fill="#a7d7c1" stroke="#a7d7c1" stroke-width="1.51"/><path d="M-143,702L-65,754L-62,574Z" fill="#a3cac5" stroke="#a3cac5" stroke-width="1.51"/><path d="M-143,971L-47,1083L-40,961Z" fill="#9b9db4" stroke="#9b9db4" stroke-width="1.51"/><path d="M-47,1083L-142,1076L-37,1245Z" fill="#968fa9" stroke="#968fa9" stroke-width="1.51"/><path d="M-142,1076L-192,1224L-37,1245Z" fill="#938ca4" stroke="#938ca4" stroke-width="1.51"/><path d="M-144,238L-45,236L-35,104Z" fill="#daf0bc" stroke="#daf0bc" stroke-width="1.51"/><path d="M-152,-31L-179,86L-35,104Z" fill="#ecf8be" stroke="#ecf8be" stroke-width="1.51"/><path d="M-29,342L-143,345L-25,487Z" fill="#b9e1c0" stroke="#b9e1c0" stroke-width="1.51"/><path d="M-143,345L-163,479L-25,487Z" fill="#b5dfc4" stroke="#b5dfc4" stroke-width="1.51"/><path d="M-152,-31L-35,104L-13,-8Z" fill="#edf8ba" stroke="#edf8ba" stroke-width="1.51"/><path d="M-43,-145L-152,-31L-13,-8Z" fill="#f4fabf" stroke="#f4fabf" stroke-width="1.51"/><path d="M-143,971L-142,1076L-47,1083Z" fill="#9b99b4" stroke="#9b99b4" stroke-width="1.51"/><path d="M-144,238L-143,345L-45,236Z" fill="#cdebc1" stroke="#cdebc1" stroke-width="1.51"/><path d="M-51,836L-143,971L-40,961Z" fill="#9ba7b8" stroke="#9ba7b8" stroke-width="1.51"/><path d="M-179,86L-144,238L-35,104Z" fill="#e3f4bf" stroke="#e3f4bf" stroke-width="1.51"/><path d="M-45,236L-143,345L-29,342Z" fill="#c6e8bf" stroke="#c6e8bf" stroke-width="1.51"/><path d="M-163,479L-62,574L-25,487Z" fill="#acdac5" stroke="#acdac5" stroke-width="1.51"/><path d="M-193,877L-143,971L-51,836Z" fill="#9dacbd" stroke="#9dacbd" stroke-width="1.51"/><path d="M-166,-162L-152,-31L-43,-145Z" fill="#f8fcc8" stroke="#f8fcc8" stroke-width="1.51"/><path d="M-178,573L-143,702L-62,574Z" fill="#a7d1c8" stroke="#a7d1c8" stroke-width="1.51"/><path d="M-65,754L-193,877L-51,836Z" fill="#9fb7c0" stroke="#9fb7c0" stroke-width="1.51"/><path d="M-163,479L-178,573L-62,574Z" fill="#aad9c9" stroke="#aad9c9" stroke-width="1.51"/><path d="M-143,702L-193,877L-65,754Z" fill="#a0bec4" stroke="#a0bec4" stroke-width="1.51"/><path d="M-144,238L-179,86L-143,345Z" fill="#d7efc2" stroke="#d7efc2" stroke-width="1.51"/><path d="M-143,971L-193,877L-142,1076Z" fill="#9da2bb" stroke="#9da2bb" stroke-width="1.51"/><path d="M-193,877L-192,1224L-142,1076Z" fill="#9d98b8" stroke="#9d98b8" stroke-width="1.51"/><path d="M-179,86L-163,479L-143,345Z" fill="#c9e9c4" stroke="#c9e9c4" stroke-width="1.51"/><path d="M-178,573L-193,877L-143,702Z" fill="#a3c7ca" stroke="#a3c7ca" stroke-width="1.51"/><path d="M-166,-162L-179,86L-152,-31Z" fill="#f5fbc3" stroke="#f5fbc3" stroke-width="1.51"/><path d="M-179,86L-178,573L-163,479Z" fill="#bee4c7" stroke="#bee4c7" stroke-width="1.51"/><path d="M-179,86L-193,877L-178,573Z" fill="#afdbcb" stroke="#afdbcb" stroke-width="1.51"/></svg>